<?xml version="1.0" standalone="no"?><!DOCTYPE svg PUBLIC "-//W3C//DTD SVG 1.1//EN" "http://www.w3.org/Graphics/SVG/1.1/DTD/svg11.dtd"><svg t="1575620401038" class="icon" viewBox="0 0 1024 1024" version="1.1" xmlns="http://www.w3.org/2000/svg" p-id="2962" xmlns:xlink="http://www.w3.org/1999/xlink" width="200" height="200"><defs><style type="text/css"></style></defs><path d="M103.686677 952.634453V66.468033a22.205356 22.205356 0 0 1 22.205356-22.205356H591.081909v243.740793a22.205356 22.205356 0 0 0 22.205356 22.205356h243.642102v265.847458h44.312022v-288.052814a22.205356 22.205356 0 0 0-6.488898-15.667113L628.905032 6.488899A22.205356 22.205356 0 0 0 613.23792 0H125.842688A66.542051 66.542051 0 0 0 59.374655 66.468033v886.16642a66.542051 66.542051 0 0 0 66.468033 66.468032h443.08321v-44.324358H125.842688a22.205356 22.205356 0 0 1-22.156011-22.143674z m531.694917-876.988206L825.595143 265.847459H635.393931V75.646247z" p-id="2963" fill="#ffffff"></path><path d="M214.466732 376.627513h265.847458a22.205356 22.205356 0 1 0 0-44.312022h-265.847458a22.205356 22.205356 0 1 0 0 44.312022zM768.31766 487.395232a22.205356 22.205356 0 0 0-22.205356-22.205356h-531.694918a22.205356 22.205356 0 1 0 0 44.312021h531.694918a22.205356 22.205356 0 0 0 22.205356-22.106665zM524.613876 598.16295H214.466732a22.205356 22.205356 0 1 0 0 44.312022h310.147144a22.205356 22.205356 0 1 0 0-44.312022zM524.613876 731.086679H214.466732a22.205356 22.205356 0 1 0 0 44.312022h310.147144a22.205356 22.205356 0 1 0 0-44.312022zM958.136446 773.782645l-90.116737-90.055056a22.205356 22.205356 0 0 0-31.321888 0L656.501355 863.887046a22.205356 22.205356 0 0 0-5.761056 10.017083l-32.160758 122.302167a22.205356 22.205356 0 0 0 27.065862 27.065862l122.203477-32.18543a22.205356 22.205356 0 0 0 10.029419-5.761057l180.245811-180.208801a22.205356 22.205356 0 0 0 0.012336-31.334225zM682.728348 926.592504l33.665787 32.234776-45.298926 11.916874z m77.977809 13.323214l-60.053152-57.4872 151.736601-151.7366 58.782512 58.770176z" p-id="2964" fill="#ffffff"></path></svg>