<?xml version="1.0" standalone="no"?><!DOCTYPE svg PUBLIC "-//W3C//DTD SVG 1.1//EN" "http://www.w3.org/Graphics/SVG/1.1/DTD/svg11.dtd"><svg t="1575620620559" class="icon" viewBox="0 0 1024 1024" version="1.1" xmlns="http://www.w3.org/2000/svg" p-id="6869" xmlns:xlink="http://www.w3.org/1999/xlink" width="200" height="200"><defs><style type="text/css"></style></defs><path d="M393.142857 458.386286c11.264 29.257143 11.264 76.8 0 106.057143l-153.6 399.652571c-11.337143 29.257143-29.549714 29.257143-40.886857 0L44.982857 564.516571c-11.337143-29.330286-11.337143-76.8 0-106.130285L198.656 58.806857c11.337143-29.257143 29.549714-29.257143 40.813714 0l153.673143 399.579429z" fill="#ffffff" p-id="6870"></path><path d="M219.062857 1022.537143c-11.117714 0-38.619429-4.388571-54.491428-45.275429L10.971429 577.609143c-14.555429-37.741714-14.555429-94.646857 0-132.388572L164.571429 45.641143c15.872-40.96 43.446857-45.348571 54.491428-45.348572 11.117714 0 38.765714 4.388571 54.418286 45.348572L427.154286 445.293714c14.555429 37.668571 14.555429 94.573714 0 132.315429l-153.6 399.579428c-15.725714 40.96-43.300571 45.348571-54.491429 45.348572z m0-915.163429L78.994286 471.478857c-8.045714 20.918857-8.045714 59.026286 0 79.872l140.068571 364.105143 139.995429-364.105143c8.045714-20.845714 8.045714-58.953143 0-79.872L219.062857 107.373714z" fill="#ffffff" p-id="6871"></path><path d="M766.683429 740.205714H343.405714a36.571429 36.571429 0 1 1 0-72.996571h423.277715a36.571429 36.571429 0 1 1 0 72.996571z" fill="#ffffff" p-id="6872"></path><path d="M698.660571 813.202286a36.498286 36.498286 0 0 1-25.819428-62.317715l47.250286-47.177142-47.250286-47.250286a36.571429 36.571429 0 0 1 51.638857-51.565714l73.069714 72.996571a36.498286 36.498286 0 0 1 0 51.638857l-73.069714 72.996572a36.425143 36.425143 0 0 1-25.819429 10.678857z m68.022858-448H357.376a36.571429 36.571429 0 0 1 0-72.996572h409.307429a36.571429 36.571429 0 1 1 0 72.996572z" fill="#ffffff" p-id="6873"></path><path d="M698.660571 438.198857A36.498286 36.498286 0 0 1 672.914286 375.954286l47.250285-47.177143-47.250285-47.250286a36.571429 36.571429 0 0 1 51.638857-51.565714l73.069714 72.996571a36.498286 36.498286 0 0 1 0 51.638857l-73.069714 72.996572a36.425143 36.425143 0 0 1-25.819429 10.678857z" fill="#ffffff" p-id="6874"></path><path d="M803.254857 1022.537143c-11.117714 0-38.765714-4.388571-54.491428-45.275429l-34.450286-89.6a36.571429 36.571429 0 1 1 68.096-26.185143l20.772571 53.979429 140.068572-364.105143c8.045714-20.845714 8.045714-58.953143 0-79.872L803.108571 107.373714l-23.844571 62.098286a36.571429 36.571429 0 0 1-68.169143-26.185143l37.595429-97.645714c15.798857-40.96 43.373714-45.348571 54.491428-45.348572 11.117714 0 38.692571 4.388571 54.418286 45.348572l153.746286 399.652571c14.409143 37.668571 14.409143 94.573714 0 132.315429l-153.673143 399.652571c-15.798857 40.886857-43.300571 45.348571-54.491429 45.348572z" fill="#ffffff" p-id="6875"></path><path d="M627.346286 594.212571A36.571429 36.571429 0 0 1 592.457143 568.32a212.845714 212.845714 0 0 1-3.291429-101.376 36.571429 36.571429 0 1 1 71.387429 15.36c-4.461714 20.699429-3.803429 46.592 1.755428 64.512a36.571429 36.571429 0 0 1-34.962285 47.323429z" fill="#ffffff" p-id="6876"></path></svg>