<?xml version="1.0" standalone="no"?><!DOCTYPE svg PUBLIC "-//W3C//DTD SVG 1.1//EN" "http://www.w3.org/Graphics/SVG/1.1/DTD/svg11.dtd"><svg t="1575620585767" class="icon" viewBox="0 0 1024 1024" version="1.1" xmlns="http://www.w3.org/2000/svg" p-id="5407" xmlns:xlink="http://www.w3.org/1999/xlink" width="200" height="200"><defs><style type="text/css"></style></defs><path d="M331.294 632.47a301.176 301.176 0 1 0 602.353 0 301.176 301.176 0 1 0-602.353 0z" p-id="5408" fill="#ffffff"></path><path d="M60.235 662.588H0V1024h361.412v-60.235H60.235V662.588zM963.765 0H662.588v60.235h301.177v301.177H1024V0h-60.235z m-683.67 662.588a355.087 355.087 0 0 1-4.82-53.91 333.402 333.402 0 0 1 333.403-333.403 355.087 355.087 0 0 1 53.91 4.82 296.056 296.056 0 1 0-382.494 382.493z" p-id="5409" fill="#ffffff"></path></svg>